# xmcd
#
# Track frame offsets:
#	150
#	20052
#	34870
#	48166
#	64429
#	81619
#	95243
#	114642
#	128052
#	142842
#	163290
#	182403
#	196828
#	216791
#	232653
#
# Disc length: 3442 seconds
#
# Revision: 2
# Processed by: cddbd v1.5.2PL0 Copyright (c) Steve Scherf et al.
# Submitted via: audiograbber 1.83.01
#
DISCID=d40d700f
DTITLE=Brooks and Dunn - #1s... and Then Some - CD 2
DYEAR=2009
DGENRE=Country
TTITLE0=Indian Summer
TTITLE1=Play Something Country
TTITLE2=My Next Broken Heart
TTITLE3=Cowgirls Don't Cry (feat. Reba McEntire)
TTITLE4=Lost and Found
TTITLE5=Little Miss Honky Tonk
TTITLE6=It's Getting Better All the Time
TTITLE7=We'll Burn That Bridge
TTITLE8=He's Got You
TTITLE9=Only in America
TTITLE10=I Am That Man
TTITLE11=Husbands and Wives
TTITLE12=Neon Moon
TTITLE13=My Maria
TTITLE14=Believe
EXTD=
EXTT0=
EXTT1=
EXTT2=
EXTT3=
EXTT4=
EXTT5=
EXTT6=
EXTT7=
EXTT8=
EXTT9=
EXTT10=
EXTT11=
EXTT12=
EXTT13=
EXTT14=
PLAYORDER=
